<?xml version="1.0" encoding="utf-8"?>
<!-- Generator: Adobe Illustrator 27.6.0, SVG Export Plug-In . SVG Version: 6.00 Build 0)  -->
<svg version="1.1" id="Layer_1" xmlns="http://www.w3.org/2000/svg" xmlns:xlink="http://www.w3.org/1999/xlink" x="0px" y="0px"
	 width="114.2px" height="364.3px" viewBox="0 0 114.2 364.3" style="enable-background:new 0 0 114.2 364.3;" xml:space="preserve"
	>
<style type="text/css">
	.st0{fill-rule:evenodd;clip-rule:evenodd;}
	.st1{fill:none;stroke:#000000;stroke-width:0.5;stroke-miterlimit:10;}
	.st2{fill:#FFFFFF;stroke:#000000;stroke-width:0.5;stroke-miterlimit:10;}
	.st3{fill:none;stroke:#000000;stroke-width:0.5;stroke-linecap:round;stroke-linejoin:round;stroke-miterlimit:10;}
</style>
<g>
	<path d="M114.5,364.5H-0.2V-0.2h114.7V364.5z M0.2,364H114V0.3H0.2V364z"/>
</g>
<g>
	<g>
		<path d="M50.6,344.9v5.7h-1.9v-5.3c0-1.7-0.7-2.6-2.2-2.6c-1.5,0-2.5,1.2-2.5,2.9v5.1H42v-12.8h1.9v4.5c0.7-0.8,1.8-1.3,3.1-1.3
			C49.2,340.9,50.6,342.4,50.6,344.9"/>
	</g>
	<g>
		<path d="M62.9,340.9c2,0,3.3,1.5,3.3,3.7v6h-1.9V345c0-1.5-0.7-2.4-1.8-2.4c-1.3,0-2.2,1.1-2.2,2.8v5.2h-1.9V345
			c0-1.5-0.7-2.4-1.8-2.4c-1.3,0-2.2,1.1-2.2,2.8v5.2h-1.9v-9.5h1.4l0.3,1.2c0.7-0.9,1.8-1.4,2.9-1.4c1.3,0,2.3,0.6,2.8,1.7
			C60.5,341.5,61.6,340.9,62.9,340.9L62.9,340.9z"/>
	</g>
	<g>
		<path d="M73.2,342.8h-2.7v7.7h-1.9v-7.7h-1.8v-1.6h1.8v-0.8c0-1.9,1-3,3-3h1.6v1.5H72c-1.1,0-1.5,0.4-1.5,1.5v0.8h2.7V342.8z"/>
	</g>
	<g>
		<path d="M73,345.8c0-2.9,2.2-5,5.1-5c2.9,0,5.1,2.1,5.1,5c0,2.8-2.2,5-5.1,5C75.2,350.8,73,348.7,73,345.8 M81.2,345.8
			c0-1.8-1.3-3.1-3.1-3.1S75,344,75,345.8c0,1.8,1.3,3.1,3.1,3.1S81.2,347.6,81.2,345.8"/>
	</g>
	<g>
		<path d="M89.7,341v1.8h-1c-1.6,0-2.4,0.9-2.4,2.6v5h-1.9v-9.5h1.3l0.3,1.3c0.7-0.9,1.6-1.3,2.9-1.3H89.7z"/>
	</g>
	<g>
		<path d="M94.3,350.8c-2.8,0-5-2.1-5-5c0-2.8,2.1-4.9,5-4.9c2.3,0,4.2,1.4,4.7,3.6h-1.9c-0.5-1.1-1.5-1.7-2.8-1.7
			c-1.7,0-3,1.3-3,3.1c0,1.8,1.3,3.1,3,3.1c1.2,0,2.2-0.7,2.8-1.8h2C98.5,349.3,96.7,350.8,94.3,350.8L94.3,350.8z"/>
	</g>
	<g>
		<path d="M109.1,345.8c0,0.2,0,0.4,0,0.6h-7.7c0.2,1.5,1.3,2.5,2.9,2.5c1.1,0,2-0.5,2.5-1.4h2c-0.8,2-2.5,3.2-4.6,3.2
			c-2.8,0-4.9-2.1-4.9-5c0-2.8,2.1-5,4.9-5C107.2,340.9,109.1,343.1,109.1,345.8L109.1,345.8z M104.3,342.6c-1.5,0-2.5,0.9-2.8,2.3
			h5.7C106.8,343.5,105.7,342.6,104.3,342.6L104.3,342.6z"/>
	</g>
	<g>
		<path d="M36,340.8c-0.4,0-0.8,0-1.2,0.1c0.1,0.3,0.2,0.6,0.2,0.9c0,0.4-0.1,0.7-0.3,1c0.4-0.1,0.8-0.2,1.2-0.2
			c1.8,0,3.1,1.3,3.1,3.1s-1.3,3.1-3.1,3.1c-1.8,0-3.1-1.3-3.1-3.1c0-0.7,0.2-1.4,0.6-1.9c-0.2,0.1-0.4,0.1-0.6,0.1
			c-0.5,0-1-0.2-1.4-0.5c-0.3,0.7-0.5,1.5-0.5,2.3c0,2.8,2.2,5,5.1,5v0c2.9,0,5.1-2.1,5.1-5C41,342.9,38.8,340.8,36,340.8"/>
	</g>
	<g>
		<path d="M33.7,341.3c-0.2-0.3-0.5-0.5-0.9-0.5c-0.6,0-1.1,0.5-1.1,1.1c0,0.3,0.1,0.5,0.3,0.7c0.2,0.2,0.5,0.4,0.8,0.4
			c0.6,0,1.1-0.5,1.1-1.1C33.9,341.6,33.8,341.4,33.7,341.3"/>
	</g>
</g>
<g>
	<g>
		<path d="M87.6,8.6c-0.3,0-0.5,0-0.8,0.1C87,8.8,87,9,87,9.2c0,0.2-0.1,0.5-0.2,0.7c0.2-0.1,0.5-0.1,0.8-0.1c1.2,0,2,0.8,2,2
			c0,1.2-0.8,2-2,2c-1.2,0-2-0.8-2-2c0-0.5,0.1-0.9,0.4-1.2c-0.1,0-0.2,0.1-0.4,0.1c-0.4,0-0.7-0.1-0.9-0.3c-0.2,0.4-0.3,1-0.3,1.5
			c0,1.8,1.4,3.2,3.3,3.2v0c1.9,0,3.3-1.4,3.3-3.2C90.9,9.9,89.5,8.6,87.6,8.6"/>
	</g>
	<g>
		<path d="M86.2,8.9c-0.1-0.2-0.3-0.3-0.6-0.3c-0.4,0-0.7,0.3-0.7,0.7c0,0.2,0.1,0.3,0.2,0.4c0.1,0.1,0.3,0.2,0.5,0.2
			c0.4,0,0.7-0.3,0.7-0.7C86.3,9.1,86.3,9,86.2,8.9"/>
	</g>
	<g>
		<path d="M83.7,11.8c0,1.8-1.3,3.2-3.2,3.2c-0.9,0-1.6-0.3-2.2-0.8l-0.2,0.7h-1V6.5h1.3v2.8c0.5-0.5,1.2-0.7,2-0.7
			C82.4,8.6,83.7,9.9,83.7,11.8 M82.4,11.8c0-1.2-0.8-2-2-2s-2,0.9-2,2c0,1.1,0.9,2,2,2S82.4,13,82.4,11.8"/>
	</g>
	<g>
		<path d="M97.1,11.2v3.7h-1.3v-3.4c0-1.1-0.5-1.7-1.4-1.7c-1,0-1.7,0.8-1.7,1.9v3.3h-1.3V6.5h1.3v2.9c0.5-0.5,1.2-0.8,2-0.8
			C96.3,8.6,97.1,9.6,97.1,11.2"/>
	</g>
	<g>
		<path d="M105.2,8.6c1.3,0,2.2,1,2.2,2.4v3.9h-1.3v-3.6c0-1-0.4-1.6-1.2-1.6c-0.8,0-1.4,0.7-1.4,1.8v3.4h-1.2v-3.6
			c0-1-0.4-1.6-1.2-1.6c-0.8,0-1.4,0.7-1.4,1.8v3.4h-1.3V8.7h0.9l0.2,0.8c0.5-0.6,1.2-0.9,1.9-0.9c0.8,0,1.5,0.4,1.8,1.1
			C103.6,9,104.4,8.6,105.2,8.6L105.2,8.6z"/>
	</g>
	<g>
		<path d="M57.3,17.9c1.8,0,3.2,1.4,3.2,3.2c0,1.8-1.3,3.2-3.2,3.2c-0.8,0-1.5-0.3-2-0.7v2.8H54V18h0.9l0.2,0.8
			C55.6,18.2,56.4,17.9,57.3,17.9L57.3,17.9z M59.2,21.1c0-1.2-0.8-2-2-2c-1.2,0-2,0.9-2,2s0.9,2,2,2C58.3,23.1,59.2,22.2,59.2,21.1
			"/>
	</g>
	<g>
		<path d="M67.1,21.1c0,0.1,0,0.3,0,0.4h-5c0.2,1,0.9,1.6,1.9,1.6c0.7,0,1.3-0.3,1.7-0.9h1.3c-0.5,1.3-1.6,2.1-3,2.1
			c-1.8,0-3.2-1.4-3.2-3.2c0-1.8,1.4-3.2,3.2-3.2C65.8,17.9,67.1,19.3,67.1,21.1L67.1,21.1z M64,19c-1,0-1.6,0.6-1.8,1.5h3.7
			C65.6,19.6,64.9,19,64,19L64,19z"/>
	</g>
	<g>
		<path d="M70.8,18h0.5v1.2h-0.6c-1,0-1.6,0.6-1.6,1.7v3.3h-1.3V18h0.9l0.2,0.9C69.4,18.3,70,18,70.8,18 M75.9,19.1h-1.7v5.1h-1.3
			v-5.1h-1.1V18h1.2v-0.5c0-1.3,0.6-1.9,2-1.9h1v1h-0.8c-0.7,0-1,0.3-1,1V18h1.8V19.1z"/>
	</g>
	<g>
		<path d="M79.1,24.3c-1.9,0-3.3-1.4-3.3-3.2c0-1.9,1.4-3.2,3.3-3.2c1.9,0,3.3,1.4,3.3,3.2C82.4,22.9,80.9,24.3,79.1,24.3L79.1,24.3
			z M81.1,21.1c0-1.2-0.8-2-2-2c-1.2,0-2,0.8-2,2c0,1.2,0.8,2,2,2C80.2,23.1,81.1,22.3,81.1,21.1"/>
	</g>
	<g>
		<path d="M86.6,18v1.2H86c-1,0-1.6,0.6-1.6,1.7v3.3h-1.3V18H84l0.2,0.8c0.4-0.6,1-0.9,1.9-0.9H86.6z"/>
	</g>
	<g>
		<path d="M93.9,17.9c1.3,0,2.2,1,2.2,2.4v3.9h-1.3v-3.6c0-1-0.4-1.6-1.2-1.6c-0.8,0-1.4,0.7-1.4,1.8v3.4H91v-3.6
			c0-1-0.4-1.6-1.2-1.6c-0.8,0-1.4,0.7-1.4,1.8v3.4H87V18h0.9l0.2,0.8c0.5-0.6,1.2-0.9,1.9-0.9c0.8,0,1.5,0.4,1.8,1.1
			C92.4,18.3,93.1,17.9,93.9,17.9L93.9,17.9z"/>
	</g>
	<g>
		<path d="M103.1,21.1c0,0.1,0,0.3,0,0.4h-5c0.2,1,0.9,1.6,1.9,1.6c0.7,0,1.3-0.3,1.7-0.9h1.3c-0.5,1.3-1.6,2.1-3,2.1
			c-1.8,0-3.2-1.4-3.2-3.2c0-1.8,1.4-3.2,3.2-3.2C101.8,17.9,103.1,19.3,103.1,21.1L103.1,21.1z M99.9,19c-1,0-1.6,0.6-1.8,1.5h3.7
			C101.6,19.6,100.9,19,99.9,19L99.9,19z"/>
	</g>
	<g>
		<path d="M107.3,18v1.2h-0.7c-1,0-1.6,0.6-1.6,1.7v3.3h-1.3V18h0.9l0.2,0.8c0.4-0.6,1-0.9,1.9-0.9H107.3z"/>
	</g>
</g>
<g>
	<path d="M21.8,239.3c-2.4,0-3.2-1.5-3.2-3.6c0-2,0.8-3.6,3.2-3.6c2.3,0,3.2,1.5,3.2,3.6C25,237.7,24.2,239.3,21.8,239.3z
		 M21.8,233.2c-1.2,0-1.8,0.8-1.8,2.5c0,1.9,0.6,2.6,1.8,2.6c1.3,0,1.8-0.9,1.8-2.6C23.6,233.9,23.1,233.2,21.8,233.2z"/>
	<path d="M29.6,239.1l-2.4-5.2v5.2h-1.3v-6.8h2l2.4,5.2v-5.2h1.3v6.8H29.6z"/>
	<path d="M32.9,239.2h-1l2.2-7h1L32.9,239.2z"/>
	<path d="M38.2,239.3c-2.4,0-3.2-1.5-3.2-3.6c0-2,0.8-3.6,3.2-3.6c2.3,0,3.2,1.5,3.2,3.6C41.3,237.7,40.5,239.3,38.2,239.3z
		 M38.2,233.2c-1.2,0-1.8,0.8-1.8,2.5c0,1.9,0.6,2.6,1.8,2.6c1.3,0,1.8-0.9,1.8-2.6C40,233.9,39.4,233.2,38.2,233.2z"/>
	<path d="M43.6,233.3v1.8h2.6v1h-2.6v3h-1.3v-6.8h4v1H43.6z"/>
	<path d="M48.4,233.3v1.8H51v1h-2.6v3h-1.3v-6.8h4v1H48.4z"/>
</g>
<g>
	<path d="M82.9,239.1h-1.2l-2.6-6.8h1.5l1.7,5.2l1.6-5.2h1.4L82.9,239.1z"/>
	<path d="M88.8,239.3c-2.4,0-3.2-1.5-3.2-3.6c0-2,0.8-3.6,3.2-3.6c2.3,0,3.2,1.5,3.2,3.6C92,237.7,91.1,239.3,88.8,239.3z
		 M88.8,233.2c-1.2,0-1.8,0.8-1.8,2.5c0,1.9,0.6,2.6,1.8,2.6c1.3,0,1.8-0.9,1.8-2.6C90.6,233.9,90,233.2,88.8,233.2z"/>
	<path d="M92.9,239.1v-6.8h1.3v5.7H97v1H92.9z"/>
</g>
<g>
	<path d="M25.3,105.7h-2.2v-6.8h2.2c2.2,0,3.2,0.9,3.2,3.4C28.5,104.8,27.5,105.7,25.3,105.7z M25.3,99.9h-0.9v4.8h1
		c1,0,1.8-0.4,1.8-2.4C27.2,100.2,26.3,99.9,25.3,99.9z"/>
	<path d="M32.3,105.9c-1.9,0-2.9-0.9-2.9-2.7v-4.3h1.3v4.2c0,1.5,0.7,1.8,1.6,1.8c0.8,0,1.4-0.5,1.4-1.8v-4.2h1.3v4.3
		C35.1,105,34.1,105.9,32.3,105.9z"/>
	<path d="M39.1,105.9c-2.3,0-3.1-1.4-3.1-3.6c0-1.9,0.8-3.5,3.2-3.5c0.6,0,1.3,0.1,1.8,0.3l-0.4,1.1c-0.4-0.2-0.9-0.4-1.4-0.4
		c-1.3,0-1.8,0.9-1.8,2.5c0,1.7,0.5,2.6,1.7,2.6c0.6,0,1-0.2,1.5-0.4l0.4,1.1C40.4,105.8,39.9,105.9,39.1,105.9z"/>
	<path d="M45.8,105.7l-2.8-3.1v3.1h-1.3v-6.8H43v2.9l2.5-2.9H47l-2.8,3.2l3.2,3.6H45.8z"/>
</g>
<g>
	<path d="M31.4,171.6v1.8H34v1h-2.6v3h-1.3v-6.8h4v1H31.4z"/>
	<path d="M38.7,177.4l-1.4-2.5l-1.6,2.5h-1.4l2.3-3.5l-2-3.3h1.5l1.2,2.1l1.3-2.1h1.4l-2.1,3.2l2.2,3.6H38.7z"/>
</g>
<g>
	<g>
		<path d="M45.9,92.9c11.1-6.1,14.8-21.1,7.7-31.7c-6.9-10.9-22.5-13.6-32.8-5.7c-13.3,9.8-12,30.3,2.2,38.6
			c-21.2-12.4-12.6-44,11.8-44.6c21.1-0.1,32.4,24.6,18.7,40.6c-1.8,2.1-3.9,3.8-6.2,5.2C47.3,95.4,45.9,92.9,45.9,92.9L45.9,92.9z"
			/>
	</g>
</g>
<g>
	<g>
		<path d="M45.9,164.5c11.1-6.1,14.8-21.1,7.7-31.7c-6.9-10.9-22.5-13.6-32.8-5.7c-13.3,9.8-12,30.3,2.2,38.6
			c-21.2-12.4-12.6-44,11.8-44.6c21.1-0.1,32.4,24.6,18.7,40.6c-1.8,2.1-3.9,3.8-6.2,5.2L45.9,164.5L45.9,164.5z"/>
	</g>
</g>
<g>
	<path d="M13.1,258.2h-1.8v-5.5h1.8c1.8,0,2.6,0.7,2.6,2.7C15.8,257.5,14.9,258.2,13.1,258.2z M13.1,253.5h-0.7v3.9h0.8
		c0.8,0,1.4-0.3,1.4-1.9C14.6,253.7,14,253.5,13.1,253.5z"/>
	<path d="M18.8,258.4c-1.6,0-2.3-0.7-2.3-2.2v-3.5h1.1v3.4c0,1.2,0.6,1.5,1.3,1.5c0.7,0,1.1-0.4,1.1-1.5v-3.4H21v3.5
		C21,257.6,20.2,258.4,18.8,258.4z"/>
	<path d="M24.3,258.4c-1.9,0-2.5-1.2-2.5-2.9c0-1.5,0.6-2.9,2.6-2.9c0.5,0,1,0.1,1.5,0.2l-0.3,0.9c-0.4-0.2-0.7-0.3-1.1-0.3
		c-1.1,0-1.5,0.8-1.5,2c0,1.4,0.4,2.1,1.4,2.1c0.5,0,0.8-0.2,1.2-0.3l0.3,0.9C25.4,258.3,24.9,258.4,24.3,258.4z"/>
	<path d="M29.7,258.2l-2.2-2.5v2.5h-1.1v-5.5h1.1v2.3l2-2.3h1.2l-2.2,2.6l2.6,2.9H29.7z"/>
</g>
<g>
	<path d="M54.3,253.5v1.4h2.1v0.8h-2.1v2.4h-1.1v-5.5h3.3v0.8H54.3z"/>
	<path d="M60.1,258.2l-1.1-2l-1.3,2h-1.1l1.8-2.8l-1.6-2.7H58l1,1.7l1.1-1.7h1.1l-1.7,2.6l1.8,2.9H60.1z"/>
</g>
<g>
	<path d="M82.7,258.4c-2,0-2.6-1.2-2.6-2.9c0-1.6,0.7-2.9,2.6-2.9c1.9,0,2.6,1.2,2.6,2.9C85.2,257.1,84.6,258.4,82.7,258.4z
		 M82.7,253.4c-1,0-1.5,0.6-1.5,2.1c0,1.5,0.5,2.1,1.5,2.1c1.1,0,1.5-0.7,1.5-2.1C84.1,254,83.7,253.4,82.7,253.4z"/>
	<path d="M89,258.2l-2-4.2v4.2h-1v-5.5h1.6l1.9,4.2v-4.2h1.1v5.5H89z"/>
	<path d="M91.6,258.3h-0.8l1.8-5.7h0.8L91.6,258.3z"/>
	<path d="M95.9,258.4c-2,0-2.6-1.2-2.6-2.9c0-1.6,0.7-2.9,2.6-2.9c1.9,0,2.6,1.2,2.6,2.9C98.5,257.1,97.8,258.4,95.9,258.4z
		 M95.9,253.4c-1,0-1.5,0.6-1.5,2.1c0,1.5,0.5,2.1,1.5,2.1c1.1,0,1.5-0.7,1.5-2.1C97.3,254,96.9,253.4,95.9,253.4z"/>
	<path d="M100.3,253.5v1.4h2.1v0.8h-2.1v2.4h-1.1v-5.5h3.3v0.8H100.3z"/>
	<path d="M104.2,253.5v1.4h2.1v0.8h-2.1v2.4h-1.1v-5.5h3.3v0.8H104.2z"/>
</g>
<g>
	<path d="M35.5,298.3v-5.5h1.1v5.5H35.5z"/>
	<path d="M40.4,298.3l-2-4.2v4.2h-1v-5.5h1.6l1.9,4.2v-4.2H42v5.5H40.4z"/>
</g>
<g>
	<path d="M39,286.5c3.1,0,6.1,1.1,8.4,3.1c7.1,6.2,15.8,14,17.2,15.2c2.4,2.2,3.7,5.1,3.7,8.2c0,3.1-1.3,6-3.7,8.2
		c-2.4,2.2-5.6,3.4-8.9,3.4H39H22.4c-3.4,0-6.5-1.2-8.9-3.4c-2.4-2.2-3.7-5.1-3.7-8.2c0-3.1,1.3-6,3.7-8.2c1.4-1.3,10.1-9,17.2-15.2
		C32.9,287.6,35.9,286.5,39,286.5 M39,285.9c-3.2,0-6.3,1.1-8.8,3.3c-7,6.2-15.8,14-17.2,15.3c-2.4,2.2-3.9,5.2-3.9,8.6l0,0v0
		c0,3.3,1.5,6.4,3.9,8.6c2.4,2.2,5.7,3.6,9.3,3.6H39h16.6c3.6,0,6.9-1.4,9.3-3.6c2.4-2.2,3.9-5.2,3.9-8.6v0l0,0
		c0-3.3-1.5-6.4-3.9-8.6c-1.4-1.3-10.2-9.1-17.2-15.3C45.3,287,42.2,285.9,39,285.9L39,285.9z"/>
</g>
<g>
	<path d="M89.5,298.3h-1l-2.1-5.5h1.2L89,297l1.3-4.2h1.1L89.5,298.3z"/>
	<path d="M94.3,298.5c-2,0-2.6-1.2-2.6-2.9c0-1.6,0.7-2.9,2.6-2.9c1.9,0,2.6,1.2,2.6,2.9C96.8,297.2,96.2,298.5,94.3,298.5z
		 M94.3,293.5c-1,0-1.5,0.6-1.5,2.1c0,1.5,0.5,2.1,1.5,2.1c1.1,0,1.5-0.7,1.5-2.1C95.7,294.1,95.3,293.5,94.3,293.5z"/>
	<path d="M97.6,298.3v-5.5h1.1v4.6h2.3v0.8H97.6z"/>
</g>
<g>
	<polygon points="98.8,51 96,221.1 96,51 98.8,51 	"/>
</g>
<g>
	<polygon points="76.6,51 79.4,221.1 79.4,51 76.6,51 	"/>
</g>
<g>
	<polygon class="st0" points="36.2,316.8 36.2,310.2 41.5,313.5 	"/>
</g>
<g>
	<path class="st1" d="M87.7,226.9L87.7,226.9c-1.9,0-3.5-1.6-3.5-3.5V48.6c0-1.9,1.6-3.5,3.5-3.5h0c1.9,0,3.5,1.6,3.5,3.5v174.8
		C91.3,225.4,89.7,226.9,87.7,226.9z"/>
	<g>
		<rect x="76.4" y="100.6" class="st2" width="22.7" height="28.3"/>
		<rect x="76.4" y="107.5" class="st2" width="22.7" height="14.7"/>
		<rect x="76.4" y="112.8" width="22.7" height="4.1"/>
	</g>
</g>
<g>
	<path class="st3" d="M34.7,53.3L34.7,53.3c1.6,0,3.1,0.2,4.6,0.5"/>
	<path class="st3" d="M39.3,53.9c0.9,0.2,1.8,0.5,2.6,0.8"/>
	<path class="st3" d="M28.6,54.2c1.9-0.6,4-0.9,6.1-0.9"/>
	<path class="st3" d="M28.6,93.2c-3.2-1-6-2.7-8.4-5.1"/>
	<path class="st3" d="M15.2,67.6c1.4-4.5,4.3-8.3,8.1-10.8"/>
	<path class="st3" d="M41.9,54.7c7.7,2.9,13.1,10.3,13.1,19c0,11.3-9.1,20.4-20.4,20.4c-2.1,0-4.1-0.3-6.1-0.9"/>
	<path class="st3" d="M15.2,67.6c-0.6,1.9-0.9,4-0.9,6.1s0.3,4.1,0.9,6.1"/>
	<path class="st3" d="M20.3,88.1c-2.3-2.3-4.1-5.2-5.1-8.4"/>
	<path class="st3" d="M28.6,54.2c-1.3,0.4-2.5,0.9-3.7,1.5"/>
	<path class="st3" d="M44.6,83.6c-0.1,0-0.3,0.1-0.4,0.1"/>
	<path class="st3" d="M25.9,61.6c0.4-0.3,0.9-0.6,1.4-0.9"/>
	<polyline class="st3" points="41.1,86.8 41.3,87.2 41.3,87.2 	"/>
	<path class="st3" d="M41,86.2c0-0.2,0.2-0.3,0.3-0.4"/>
	<path class="st3" d="M20.8,71.5c0.2-0.1,0.3-0.3,0.3-0.5c0.1-0.3,0.2-0.6,0.2-0.9"/>
	<path class="st3" d="M45.5,84.1l-0.3-0.3c0,0,0,0-0.1,0"/>
	<path class="st3" d="M22.1,68c0-0.1,0-0.1,0.1-0.2c0,0,0,0,0,0"/>
	<path class="st3" d="M45.1,83.8c-0.1-0.1-0.3-0.2-0.5-0.2"/>
	<path class="st3" d="M19.7,73.7c0-0.7,0-1.4,0.1-2.1"/>
	<path class="st3" d="M38.1,88.3c-0.2,0.1-0.5,0.1-0.8,0.1"/>
	<path class="st3" d="M36.4,88.6c0.3,0,0.6-0.1,0.9-0.2"/>
	<path class="st3" d="M34.7,88.7c0.6,0,1.1,0,1.7-0.1"/>
	<path class="st3" d="M22.2,67.3C22.2,67.3,22.2,67.4,22.2,67.3"/>
	<path class="st3" d="M22.1,68c-0.3,0.7-0.5,1.4-0.7,2.1"/>
	<path class="st3" d="M41.3,87.2C41.3,87.2,41.2,87.2,41.3,87.2"/>
	<path class="st3" d="M22.2,67.6c0,0.1,0,0.2-0.1,0.3"/>
	<path class="st3" d="M44.2,83.8C44.2,83.8,44.2,83.8,44.2,83.8c-0.8,0.8-1.8,1.5-2.8,2c0,0,0,0,0,0"/>
	<line class="st3" x1="31.8" y1="59" x2="31.8" y2="59"/>
	<path class="st3" d="M20.8,71.5c-0.2,0.1-0.3,0.2-0.5,0.1l-0.4-0.1"/>
	<path class="st3" d="M49.7,72.7c0-0.3-0.1-0.6-0.1-0.9"/>
	<path class="st3" d="M22.2,67.3c-0.1-0.2-0.2-0.4-0.4-0.5l-0.4-0.2l0,0"/>
	<path class="st3" d="M21.5,66.7c0.8-1.5,1.9-2.9,3.1-4"/>
	<path class="st3" d="M40.7,60c-1-0.4-2-0.8-3.1-1"/>
	<path class="st3" d="M38.1,88.3c1.1-0.3,2.1-0.6,3.2-1.1"/>
	<path class="st3" d="M28.6,60c0,0,0.1,0,0.1-0.1"/>
	<path class="st3" d="M24.6,62.7c0.4-0.4,0.9-0.7,1.3-1.1c0,0,0,0,0,0"/>
	<path class="st3" d="M47.3,81.9c1.6-2.4,2.4-5.2,2.4-8.2c0-0.3,0-0.7,0-1"/>
	<path class="st3" d="M23.9,84.1L23.9,84.1c-0.4-0.4-0.8-0.9-1.2-1.4"/>
	<path class="st3" d="M49.6,71.8c0-0.1,0-0.1,0-0.2"/>
	<line class="st3" x1="49.5" y1="71.6" x2="49.5" y2="71.6"/>
	<path class="st3" d="M48.2,71C48.2,71,48.3,71.1,48.2,71c0.1,0.5,0.5,0.7,0.9,0.7l0.4-0.1"/>
	<path class="st3" d="M22.7,82.7c-1.1-1.4-1.9-3-2.4-4.7"/>
	<path class="st3" d="M22.2,67.6c0-0.1,0-0.1,0-0.2"/>
	<path class="st3" d="M44.2,83.8C44.2,83.8,44.2,83.8,44.2,83.8"/>
	<line class="st3" x1="41.3" y1="85.8" x2="41.3" y2="85.8"/>
	<path class="st3" d="M41,86.3C41,86.3,41,86.3,41,86.3"/>
	<path class="st3" d="M24.3,83.8C24.3,83.8,24.3,83.8,24.3,83.8l-0.4,0.4"/>
	<polyline class="st3" points="28.3,86.8 28.3,86.8 28.1,87.2 28.1,87.2 	"/>
	<path class="st3" d="M47.9,66.7l-0.4,0.2c0,0,0,0-0.1,0.1"/>
	<path class="st3" d="M44.6,83.6C44.6,83.6,44.6,83.6,44.6,83.6"/>
	<line class="st3" x1="45.1" y1="83.8" x2="45.1" y2="83.8"/>
	<path class="st3" d="M32.7,88.5c-1.6-0.2-3.1-0.7-4.6-1.4"/>
	<path class="st3" d="M40.7,60c0.1,0,0.1,0.1,0.2,0.1"/>
	<path class="st3" d="M28.4,86.2C28.4,86.3,28.4,86.3,28.4,86.2"/>
	<path class="st3" d="M32.7,88.5c0.7,0.1,1.3,0.1,2,0.1"/>
	<path class="st3" d="M28.3,86.8c0-0.1,0.1-0.2,0.1-0.3"/>
	<line class="st3" x1="28.1" y1="87.2" x2="28.1" y2="87.2"/>
	<path class="st3" d="M24.8,83.6c-0.2,0-0.3,0.1-0.5,0.2"/>
	<line class="st3" x1="24.8" y1="83.6" x2="24.8" y2="83.6"/>
	<path class="st3" d="M28.4,86.5c0-0.1,0-0.2,0-0.2"/>
	<line class="st3" x1="24.3" y1="83.8" x2="24.3" y2="83.8"/>
	<path class="st3" d="M28.4,86.2c-0.1-0.2-0.2-0.3-0.3-0.4c-1-0.6-1.9-1.2-2.8-2c-0.1-0.1-0.3-0.2-0.5-0.2"/>
	<path class="st3" d="M41,86.3c0,0.1,0,0.1,0,0.2"/>
	<path class="st3" d="M44.8,62.7c-0.4-0.4-0.9-0.7-1.3-1.1c-0.4-0.3-0.9-0.6-1.4-0.9"/>
	<path class="st3" d="M41,86.5c0,0.1,0,0.2,0.1,0.3"/>
	<path class="st3" d="M47.2,67.4c0,0.1,0,0.1,0,0.2"/>
	<line class="st3" x1="19.9" y1="71.6" x2="19.9" y2="71.6"/>
	<path class="st3" d="M42.1,60.7c-0.4-0.2-0.9-0.4-1.3-0.6"/>
	<path class="st3" d="M47.2,67.6c0,0.1,0,0.2,0.1,0.3c0.2,0.4,0.3,0.7,0.4,1.1"/>
	<path class="st3" d="M28.6,60c-0.5,0.2-0.9,0.4-1.3,0.7"/>
	<path class="st3" d="M31.8,59c-1.1,0.2-2.1,0.5-3.1,1"/>
	<path class="st3" d="M47.6,68.9c0,0,0,0.1,0.1,0.1"/>
	<path class="st3" d="M47.2,67.4C47.2,67.4,47.2,67.3,47.2,67.4"/>
	<path class="st3" d="M48.2,71c-0.1-0.7-0.3-1.3-0.5-1.9"/>
	<path class="st3" d="M47.2,67.3c0-0.2,0.1-0.3,0.3-0.4"/>
	<line class="st3" x1="47.5" y1="66.9" x2="47.5" y2="66.9"/>
	<path class="st3" d="M22.2,67.3C22.2,67.3,22.2,67.4,22.2,67.3"/>
	<path class="st3" d="M22.1,68c0-0.1,0-0.1,0.1-0.2c0,0,0,0,0,0"/>
	<path class="st3" d="M22.2,67.6c0-0.1,0-0.1,0-0.2"/>
	<path class="st3" d="M22.2,67.8c0-0.1,0.1-0.2,0.1-0.3"/>
	<line class="st3" x1="19.9" y1="71.6" x2="19.9" y2="71.6"/>
	<path class="st3" d="M21.4,70.1c0-0.1,0.1-0.3,0.1-0.4c0.1-0.2,0.1-0.4,0.2-0.6c0.1-0.3,0.2-0.6,0.4-1c0,0,0-0.1,0-0.1"/>
	<path class="st3" d="M20.8,71.5c0.2-0.1,0.3-0.3,0.3-0.5c0-0.1,0-0.2,0.1-0.2c0-0.2,0.1-0.5,0.2-0.7"/>
	<path class="st3" d="M22.2,67.3c0-0.2-0.1-0.3-0.3-0.4l-0.5-0.2c0,0,0,0,0,0l-1-0.5c-0.9,1.6-1.4,3.4-1.7,5.3"/>
	<path class="st3" d="M20.8,71.5c-0.2,0.1-0.3,0.2-0.5,0.1l-0.4-0.1"/>
	<path class="st3" d="M18.7,71.4C18.7,71.5,18.7,71.5,18.7,71.4l1.1,0.2c0,0,0,0,0,0"/>
	<path class="st3" d="M47.7,69.1C47.7,69.1,47.7,69.1,47.7,69.1c0,0,0-0.1-0.1-0.1"/>
	<path class="st3" d="M48.2,71c0-0.1,0-0.1,0-0.2c-0.1-0.4-0.2-0.8-0.3-1.1c-0.1-0.2-0.1-0.4-0.2-0.6"/>
	<line class="st3" x1="49.5" y1="71.6" x2="49.5" y2="71.6"/>
	<path class="st3" d="M47.5,66.9l0.5-0.2c0,0,0,0,0,0l1-0.5c0.9,1.6,1.4,3.4,1.7,5.3"/>
	<path class="st3" d="M48.2,71C48.3,71,48.3,71.1,48.2,71c0.1,0.5,0.5,0.7,0.9,0.7l0.4-0.1"/>
	<path class="st3" d="M47.2,67.4c0,0.1,0,0.1,0,0.2"/>
	<polyline class="st3" points="49.5,71.6 49.5,71.6 49.5,71.6 	"/>
	<path class="st3" d="M47.2,67.6c0,0.1,0,0.2,0.1,0.3c0,0.1,0.1,0.2,0.1,0.3c0.1,0.3,0.2,0.5,0.3,0.8"/>
	<path class="st3" d="M49.5,71.6l1.1-0.2c0,0,0,0,0,0"/>
	<polyline class="st3" points="47.5,66.9 47.5,66.9 47.5,66.9 	"/>
	<path class="st3" d="M47.2,67.4C47.2,67.4,47.2,67.3,47.2,67.4"/>
	<path class="st3" d="M47.2,67.3c0-0.2,0.1-0.3,0.3-0.4"/>
	<path class="st3" d="M41.8,88.2c1.7-0.8,3.2-1.9,4.5-3.3l-0.8-0.8c0,0,0,0,0,0l-0.4-0.4"/>
	<polyline class="st3" points="45.1,83.8 45.1,83.8 45.1,83.8 	"/>
	<path class="st3" d="M44.2,83.7C44.2,83.8,44.2,83.8,44.2,83.7C44.2,83.8,44.2,83.8,44.2,83.7"/>
	<path class="st3" d="M41,86.5c0,0.1,0,0.2,0.1,0.3"/>
	<path class="st3" d="M41,86.2c0-0.2,0.2-0.3,0.3-0.4"/>
	<path class="st3" d="M44.6,83.6C44.6,83.6,44.6,83.6,44.6,83.6"/>
	<polyline class="st3" points="41.1,86.8 41.3,87.2 41.3,87.2 41.3,87.2 	"/>
	<line class="st3" x1="41.3" y1="87.2" x2="41.3" y2="87.2"/>
	<polyline class="st3" points="41.3,85.8 41.3,85.8 41.3,85.8 	"/>
	<path class="st3" d="M41.3,85.8c1-0.6,2-1.2,2.8-2"/>
	<path class="st3" d="M41,86.3C41,86.3,41,86.3,41,86.3"/>
	<polyline class="st3" points="41.8,88.2 41.8,88.2 41.3,87.2 	"/>
	<path class="st3" d="M41,86.3c0,0.1,0,0.1,0,0.2"/>
	<path class="st3" d="M44.2,83.7c0.1-0.1,0.2-0.1,0.4-0.1"/>
	<path class="st3" d="M44.6,83.6c0.2,0,0.3,0.1,0.5,0.2"/>
	<path class="st3" d="M28.4,86.2C28.4,86.3,28.4,86.3,28.4,86.2"/>
	<line class="st3" x1="28.1" y1="87.2" x2="28.1" y2="87.2"/>
	<path class="st3" d="M24.3,83.8c0.1-0.1,0.3-0.2,0.5-0.2"/>
	<path class="st3" d="M28.4,86.5c0-0.1,0-0.2,0-0.2"/>
	<path class="st3" d="M28.3,86.8c0-0.1,0.1-0.2,0.1-0.3"/>
	<line class="st3" x1="28.1" y1="87.2" x2="28.1" y2="87.2"/>
	<path class="st3" d="M24.3,83.8l-0.4,0.4c0,0,0,0,0,0c-0.3,0.3-0.6,0.5-0.8,0.8c1.3,1.3,2.8,2.4,4.5,3.3"/>
	<path class="st3" d="M24.8,83.6c0.2,0,0.3,0.1,0.5,0.2c0.8,0.8,1.8,1.5,2.8,2c0.2,0.1,0.3,0.3,0.3,0.4"/>
	<polyline class="st3" points="28.1,87.2 28.1,87.2 28.1,87.2 	"/>
	<polyline class="st3" points="28.3,86.8 28.3,86.8 28.1,87.2 	"/>
	<polyline class="st3" points="24.3,83.8 24.3,83.8 24.3,83.8 	"/>
	<line class="st3" x1="28.1" y1="87.2" x2="28.1" y2="87.2"/>
	<polyline class="st3" points="27.6,88.2 27.6,88.2 28.1,87.2 	"/>
	<line class="st3" x1="24.8" y1="83.6" x2="24.8" y2="83.6"/>
	<path class="st3" d="M28.6,54.2c1.9-0.6,4-0.9,6.1-0.9h0"/>
	<path class="st3" d="M28.6,54.2c-1.3,0.4-2.5,0.9-3.7,1.5"/>
	<path class="st3" d="M34.7,53.3c1.6,0,3.1,0.2,4.6,0.5"/>
	<path class="st3" d="M20.3,88.1c-2.3-2.3-4.1-5.2-5.1-8.4"/>
	<path class="st3" d="M28.6,93.2c-3.2-1-6-2.7-8.4-5.1"/>
	<path class="st3" d="M15.2,67.6c1.4-4.5,4.3-8.3,8.1-10.8"/>
	<path class="st3" d="M41.9,54.7c-0.9-0.3-1.7-0.6-2.6-0.8"/>
	<path class="st3" d="M41.9,54.7c7.7,2.9,13.1,10.3,13.1,19c0,11.3-9.1,20.4-20.4,20.4c-2.1,0-4.1-0.3-6.1-0.9"/>
	<path class="st3" d="M15.2,67.6c-0.6,1.9-0.9,4-0.9,6.1s0.3,4.1,0.9,6.1"/>
	<path class="st3" d="M23.3,56.8c0.5-0.4,1.1-0.7,1.7-1"/>
	<line class="st3" x1="31.8" y1="62.2" x2="31.8" y2="59"/>
	<line class="st3" x1="31.8" y1="59" x2="31.8" y2="59"/>
	<line class="st3" x1="37.5" y1="62.2" x2="37.5" y2="59"/>
	<line class="st3" x1="37.5" y1="57.2" x2="37.5" y2="57.2"/>
	<path class="st3" d="M37.5,57.2l0.5-2.6c0-0.1,0-0.3-0.1-0.4c-0.1-0.1-0.2-0.2-0.4-0.2c-0.9-0.1-1.9-0.2-2.9-0.2
		c-1,0-1.9,0.1-2.9,0.2c-0.2,0-0.3,0.1-0.4,0.2c-0.1,0.1-0.1,0.3-0.1,0.4l0.5,2.6v0"/>
	<path class="st3" d="M21.5,66.7L21.5,66.7c0.8-1.5,1.9-2.9,3.1-4"/>
	<path class="st3" d="M49.6,71.8c0,0.3,0.1,0.6,0.1,0.9"/>
	<path class="st3" d="M20.3,78c0.5,1.7,1.3,3.3,2.4,4.7"/>
	<path class="st3" d="M27.6,88.2l-0.1,0.2c-0.2,0.4,0,0.8,0.4,1c2.1,0.9,4.5,1.4,6.8,1.4c2.3,0,4.7-0.5,6.8-1.4
		c0.4-0.2,0.5-0.6,0.4-1l-0.1-0.2"/>
	<path class="st3" d="M32.7,88.5c-1.6-0.2-3.1-0.7-4.6-1.4"/>
	<path class="st3" d="M47.9,66.7l1.2-0.6c0.4-0.2,0.5-0.7,0.3-1c-1.2-2-2.8-3.8-4.7-5.1c-1.9-1.4-4.1-2.3-6.3-2.9
		c-0.4-0.1-0.8,0.2-0.9,0.6"/>
	<path class="st3" d="M23.9,84.1c-0.4-0.4-0.8-0.9-1.2-1.4"/>
	<line class="st3" x1="50.6" y1="71.5" x2="49.5" y2="71.6"/>
	<path class="st3" d="M28.7,60c1-0.4,2-0.8,3.1-1"/>
	<line class="st3" x1="31.8" y1="59" x2="31.8" y2="59"/>
	<path class="st3" d="M31.8,57.6c-0.1-0.4-0.5-0.6-0.9-0.6c-2.3,0.5-4.4,1.5-6.3,2.9C22.8,61.2,21.2,63,20,65
		c-0.2,0.4-0.1,0.8,0.3,1l1.2,0.6"/>
	<path class="st3" d="M27.3,60.7c-0.5,0.3-0.9,0.6-1.4,0.9"/>
	<path class="st3" d="M40.7,60c-1-0.4-2-0.8-3.1-1"/>
	<path class="st3" d="M24.6,62.7c0.4-0.4,0.9-0.7,1.3-1.1c0,0,0,0,0,0"/>
	<path class="st3" d="M27.3,60.7c0.4-0.2,0.9-0.5,1.3-0.7"/>
	<path class="st3" d="M18.7,71.4l-0.2,0c-0.4-0.1-0.8,0.2-0.8,0.6c-0.1,0.5-0.1,1.1-0.1,1.6c0,4.2,1.5,8.2,4.3,11.3
		c0.3,0.3,0.8,0.3,1.1,0l1-0.9l0,0"/>
	<path class="st3" d="M28.7,60c0,0-0.1,0-0.1,0.1"/>
	<line class="st3" x1="18.7" y1="71.4" x2="19.9" y2="71.6"/>
	<path class="st3" d="M37.3,88.4c0.3,0,0.5-0.1,0.8-0.1"/>
	<path class="st3" d="M34.7,88.7c-0.7,0-1.3-0.1-2-0.1"/>
	<path class="st3" d="M34.7,88.7c0.6,0,1.1,0,1.7-0.1"/>
	<line class="st3" x1="27.6" y1="88.2" x2="28.1" y2="87.2"/>
	<path class="st3" d="M40.8,60c-0.1,0-0.1-0.1-0.2-0.1"/>
	<line class="st3" x1="19.9" y1="71.6" x2="19.9" y2="71.6"/>
	<line class="st3" x1="28.1" y1="87.2" x2="28.1" y2="87.2"/>
	<line class="st3" x1="41.8" y1="88.2" x2="41.3" y2="87.2"/>
	<path class="st3" d="M44.8,62.7c-0.4-0.4-0.9-0.7-1.3-1.1c-0.4-0.3-0.9-0.6-1.4-0.9"/>
	<path class="st3" d="M41.2,87.2C41.2,87.2,41.3,87.2,41.2,87.2L41.2,87.2"/>
	<path class="st3" d="M49.6,71.8c0-0.1,0-0.1,0-0.2l0,0"/>
	<path class="st3" d="M37.3,88.4c-0.3,0.1-0.6,0.1-0.9,0.2"/>
	<line class="st3" x1="28.1" y1="87.2" x2="28.1" y2="87.2"/>
	<path class="st3" d="M45.5,84.1l1,0.9c0.3,0.3,0.8,0.3,1.1,0c2.8-3.1,4.3-7.1,4.3-11.3c0-0.5,0-1.1-0.1-1.6c0-0.4-0.4-0.7-0.8-0.6
		l-0.2,0"/>
	<path class="st3" d="M40.8,60c0.4,0.2,0.9,0.4,1.3,0.6"/>
	<path class="st3" d="M47.3,81.9c1.6-2.4,2.4-5.2,2.4-8.2c0-0.3,0-0.7,0-1"/>
	<line class="st3" x1="28.1" y1="87.2" x2="28.1" y2="87.2"/>
	<path class="st3" d="M19.7,73.7c0-0.7,0-1.4,0.1-2.1l0,0"/>
	<path class="st3" d="M41.2,87.2c-1,0.5-2.1,0.9-3.2,1.1"/>
	<path class="st3" d="M47.3,81.9c-0.5,0.8-1.1,1.6-1.8,2.3"/>
	<path class="st3" d="M47.9,66.7c-0.8-1.5-1.9-2.9-3.1-4"/>
	<path class="st3" d="M19.7,73.7c0,1.5,0.2,2.9,0.6,4.3"/>
	<line class="st3" x1="31.8" y1="59" x2="31.8" y2="58.1"/>
	<line class="st3" x1="37.5" y1="58.1" x2="37.5" y2="59"/>
	<line class="st3" x1="37.5" y1="59" x2="37.5" y2="59"/>
	<line class="st3" x1="31.8" y1="57.2" x2="31.8" y2="57.6"/>
	<path class="st3" d="M37.5,57.2"/>
	<line class="st3" x1="37.5" y1="57.6" x2="37.5" y2="57.2"/>
	<path class="st3" d="M31.8,58.1"/>
	<path class="st3" d="M37.5,58.1"/>
	<line class="st3" x1="31.8" y1="57.6" x2="31.8" y2="58.1"/>
	<line class="st3" x1="37.5" y1="57.6" x2="37.5" y2="58.1"/>
	<path class="st3" d="M31.8,62.2c-5.2,1.3-9,5.9-9,11.5c0,6.6,5.3,11.9,11.9,11.9c6.6,0,11.9-5.3,11.9-11.9c0-5.6-3.9-10.3-9-11.5"
		/>
</g>
<g>
	<path class="st3" d="M34.7,125.2L34.7,125.2c1.6,0,3.1,0.2,4.6,0.5"/>
	<path class="st3" d="M39.3,125.8c0.9,0.2,1.8,0.5,2.6,0.8"/>
	<path class="st3" d="M28.6,126.1c1.9-0.6,4-0.9,6.1-0.9"/>
	<path class="st3" d="M28.6,165.1c-3.2-1-6-2.7-8.4-5.1"/>
	<path class="st3" d="M15.2,139.5c1.4-4.5,4.3-8.3,8.1-10.8"/>
	<path class="st3" d="M41.9,126.6c7.7,2.9,13.1,10.3,13.1,19c0,11.3-9.1,20.4-20.4,20.4c-2.1,0-4.1-0.3-6.1-0.9"/>
	<path class="st3" d="M15.2,139.5c-0.6,1.9-0.9,4-0.9,6.1s0.3,4.1,0.9,6.1"/>
	<path class="st3" d="M20.3,160c-2.3-2.3-4.1-5.2-5.1-8.4"/>
	<path class="st3" d="M28.6,126.1c-1.3,0.4-2.5,0.9-3.7,1.5"/>
	<path class="st3" d="M44.6,155.5c-0.1,0-0.3,0.1-0.4,0.1"/>
	<path class="st3" d="M25.9,133.4c0.4-0.3,0.9-0.6,1.4-0.9"/>
	<polyline class="st3" points="41.1,158.7 41.3,159.1 41.3,159.1 	"/>
	<path class="st3" d="M41,158.1c0-0.2,0.2-0.3,0.3-0.4"/>
	<path class="st3" d="M20.8,143.4c0.2-0.1,0.3-0.3,0.3-0.5c0.1-0.3,0.2-0.6,0.2-0.9"/>
	<path class="st3" d="M45.5,156l-0.3-0.3c0,0,0,0-0.1,0"/>
	<path class="st3" d="M22.1,139.9c0-0.1,0-0.1,0.1-0.2c0,0,0,0,0,0"/>
	<path class="st3" d="M45.1,155.6c-0.1-0.1-0.3-0.2-0.5-0.2"/>
	<path class="st3" d="M19.7,145.6c0-0.7,0-1.4,0.1-2.1"/>
	<path class="st3" d="M38.1,160.2c-0.2,0.1-0.5,0.1-0.8,0.1"/>
	<path class="st3" d="M36.4,160.5c0.3,0,0.6-0.1,0.9-0.2"/>
	<path class="st3" d="M34.7,160.6c0.6,0,1.1,0,1.7-0.1"/>
	<path class="st3" d="M22.2,139.2C22.2,139.2,22.2,139.3,22.2,139.2"/>
	<path class="st3" d="M22.1,139.9c-0.3,0.7-0.5,1.4-0.7,2.1"/>
	<path class="st3" d="M41.3,159.1C41.3,159.1,41.2,159.1,41.3,159.1"/>
	<path class="st3" d="M22.2,139.5c0,0.1,0,0.2-0.1,0.3"/>
	<path class="st3" d="M44.2,155.7C44.2,155.7,44.2,155.7,44.2,155.7c-0.8,0.8-1.8,1.5-2.8,2c0,0,0,0,0,0"/>
	<line class="st3" x1="31.8" y1="130.9" x2="31.8" y2="130.9"/>
	<path class="st3" d="M20.8,143.4c-0.2,0.1-0.3,0.2-0.5,0.1l-0.4-0.1"/>
	<path class="st3" d="M49.7,144.5c0-0.3-0.1-0.6-0.1-0.9"/>
	<path class="st3" d="M22.2,139.2c-0.1-0.2-0.2-0.4-0.4-0.5l-0.4-0.2l0,0"/>
	<path class="st3" d="M21.5,138.6c0.8-1.5,1.9-2.9,3.1-4"/>
	<path class="st3" d="M40.7,131.8c-1-0.4-2-0.8-3.1-1"/>
	<path class="st3" d="M38.1,160.2c1.1-0.3,2.1-0.6,3.2-1.1"/>
	<path class="st3" d="M28.6,131.9c0,0,0.1,0,0.1-0.1"/>
	<path class="st3" d="M24.6,134.5c0.4-0.4,0.9-0.7,1.3-1.1c0,0,0,0,0,0"/>
	<path class="st3" d="M47.3,153.7c1.6-2.4,2.4-5.2,2.4-8.2c0-0.3,0-0.7,0-1"/>
	<path class="st3" d="M23.9,156L23.9,156c-0.4-0.4-0.8-0.9-1.2-1.4"/>
	<path class="st3" d="M49.6,143.7c0-0.1,0-0.1,0-0.2"/>
	<line class="st3" x1="49.5" y1="143.5" x2="49.5" y2="143.5"/>
	<path class="st3" d="M48.2,142.9C48.2,142.9,48.3,142.9,48.2,142.9c0.1,0.5,0.5,0.7,0.9,0.7l0.4-0.1"/>
	<path class="st3" d="M22.7,154.6c-1.1-1.4-1.9-3-2.4-4.7"/>
	<path class="st3" d="M22.2,139.5c0-0.1,0-0.1,0-0.2"/>
	<path class="st3" d="M44.2,155.7C44.2,155.6,44.2,155.6,44.2,155.7"/>
	<line class="st3" x1="41.3" y1="157.7" x2="41.3" y2="157.7"/>
	<path class="st3" d="M41,158.2C41,158.2,41,158.1,41,158.2"/>
	<path class="st3" d="M24.3,155.6C24.3,155.7,24.3,155.7,24.3,155.6l-0.4,0.4"/>
	<polyline class="st3" points="28.3,158.7 28.3,158.7 28.1,159.1 28.1,159.1 	"/>
	<path class="st3" d="M47.9,138.6l-0.4,0.2c0,0,0,0-0.1,0.1"/>
	<path class="st3" d="M44.6,155.5C44.6,155.5,44.6,155.5,44.6,155.5"/>
	<line class="st3" x1="45.1" y1="155.6" x2="45.1" y2="155.6"/>
	<path class="st3" d="M32.7,160.4c-1.6-0.2-3.1-0.7-4.6-1.4"/>
	<path class="st3" d="M40.7,131.8c0.1,0,0.1,0.1,0.2,0.1"/>
	<path class="st3" d="M28.4,158.1C28.4,158.1,28.4,158.2,28.4,158.1"/>
	<path class="st3" d="M32.7,160.4c0.7,0.1,1.3,0.1,2,0.1"/>
	<path class="st3" d="M28.3,158.7c0-0.1,0.1-0.2,0.1-0.3"/>
	<line class="st3" x1="28.1" y1="159.1" x2="28.1" y2="159.1"/>
	<path class="st3" d="M24.8,155.5c-0.2,0-0.3,0.1-0.5,0.2"/>
	<line class="st3" x1="24.8" y1="155.5" x2="24.8" y2="155.5"/>
	<path class="st3" d="M28.4,158.4c0-0.1,0-0.2,0-0.2"/>
	<line class="st3" x1="24.3" y1="155.6" x2="24.3" y2="155.6"/>
	<path class="st3" d="M28.4,158.1c-0.1-0.2-0.2-0.3-0.3-0.4c-1-0.6-1.9-1.2-2.8-2c-0.1-0.1-0.3-0.2-0.5-0.2"/>
	<path class="st3" d="M41,158.2c0,0.1,0,0.1,0,0.2"/>
	<path class="st3" d="M44.8,134.5c-0.4-0.4-0.9-0.7-1.3-1.1c-0.4-0.3-0.9-0.6-1.4-0.9"/>
	<path class="st3" d="M41,158.4c0,0.1,0,0.2,0.1,0.3"/>
	<path class="st3" d="M47.2,139.3c0,0.1,0,0.1,0,0.2"/>
	<line class="st3" x1="19.9" y1="143.5" x2="19.9" y2="143.5"/>
	<path class="st3" d="M42.1,132.6c-0.4-0.2-0.9-0.4-1.3-0.6"/>
	<path class="st3" d="M47.2,139.5c0,0.1,0,0.2,0.1,0.3c0.2,0.4,0.3,0.7,0.4,1.1"/>
	<path class="st3" d="M28.6,131.9c-0.5,0.2-0.9,0.4-1.3,0.7"/>
	<path class="st3" d="M31.8,130.9c-1.1,0.2-2.1,0.5-3.1,1"/>
	<path class="st3" d="M47.6,140.8c0,0,0,0.1,0.1,0.1"/>
	<path class="st3" d="M47.2,139.3C47.2,139.3,47.2,139.2,47.2,139.3"/>
	<path class="st3" d="M48.2,142.9c-0.1-0.7-0.3-1.3-0.5-1.9"/>
	<path class="st3" d="M47.2,139.2c0-0.2,0.1-0.3,0.3-0.4"/>
	<line class="st3" x1="47.5" y1="138.8" x2="47.5" y2="138.8"/>
	<path class="st3" d="M22.2,139.2C22.2,139.2,22.2,139.3,22.2,139.2"/>
	<path class="st3" d="M22.1,139.9c0-0.1,0-0.1,0.1-0.2c0,0,0,0,0,0"/>
	<path class="st3" d="M22.2,139.5c0-0.1,0-0.1,0-0.2"/>
	<path class="st3" d="M22.2,139.7c0-0.1,0.1-0.2,0.1-0.3"/>
	<line class="st3" x1="19.9" y1="143.5" x2="19.9" y2="143.5"/>
	<path class="st3" d="M21.4,142c0-0.1,0.1-0.3,0.1-0.4c0.1-0.2,0.1-0.4,0.2-0.6c0.1-0.3,0.2-0.6,0.4-1c0,0,0-0.1,0-0.1"/>
	<path class="st3" d="M20.8,143.4c0.2-0.1,0.3-0.3,0.3-0.5c0-0.1,0-0.2,0.1-0.2c0-0.2,0.1-0.5,0.2-0.7"/>
	<path class="st3" d="M22.2,139.2c0-0.2-0.1-0.3-0.3-0.4l-0.5-0.2c0,0,0,0,0,0l-1-0.5c-0.9,1.6-1.4,3.4-1.7,5.3"/>
	<path class="st3" d="M20.8,143.4c-0.2,0.1-0.3,0.2-0.5,0.1l-0.4-0.1"/>
	<path class="st3" d="M18.7,143.3C18.7,143.3,18.7,143.3,18.7,143.3l1.1,0.2c0,0,0,0,0,0"/>
	<path class="st3" d="M47.7,140.9C47.7,140.9,47.7,140.9,47.7,140.9c0,0,0-0.1-0.1-0.1"/>
	<path class="st3" d="M48.2,142.9c0-0.1,0-0.1,0-0.2c-0.1-0.4-0.2-0.8-0.3-1.1c-0.1-0.2-0.1-0.4-0.2-0.6"/>
	<line class="st3" x1="49.5" y1="143.5" x2="49.5" y2="143.5"/>
	<path class="st3" d="M47.5,138.8l0.5-0.2c0,0,0,0,0,0l1-0.5c0.9,1.6,1.4,3.4,1.7,5.3"/>
	<path class="st3" d="M48.2,142.9C48.3,142.9,48.3,142.9,48.2,142.9c0.1,0.5,0.5,0.7,0.9,0.7l0.4-0.1"/>
	<path class="st3" d="M47.2,139.3c0,0.1,0,0.1,0,0.2"/>
	<polyline class="st3" points="49.5,143.5 49.5,143.5 49.5,143.5 	"/>
	<path class="st3" d="M47.2,139.5c0,0.1,0,0.2,0.1,0.3c0,0.1,0.1,0.2,0.1,0.3c0.1,0.3,0.2,0.5,0.3,0.8"/>
	<path class="st3" d="M49.5,143.5l1.1-0.2c0,0,0,0,0,0"/>
	<polyline class="st3" points="47.5,138.8 47.5,138.8 47.5,138.8 	"/>
	<path class="st3" d="M47.2,139.3C47.2,139.3,47.2,139.2,47.2,139.3"/>
	<path class="st3" d="M47.2,139.2c0-0.2,0.1-0.3,0.3-0.4"/>
	<path class="st3" d="M41.8,160.1c1.7-0.8,3.2-1.9,4.5-3.3l-0.8-0.8c0,0,0,0,0,0l-0.4-0.4"/>
	<polyline class="st3" points="45.1,155.6 45.1,155.6 45.1,155.6 	"/>
	<path class="st3" d="M44.2,155.6C44.2,155.6,44.2,155.6,44.2,155.6C44.2,155.7,44.2,155.7,44.2,155.6"/>
	<path class="st3" d="M41,158.4c0,0.1,0,0.2,0.1,0.3"/>
	<path class="st3" d="M41,158.1c0-0.2,0.2-0.3,0.3-0.4"/>
	<path class="st3" d="M44.6,155.5C44.6,155.5,44.6,155.5,44.6,155.5"/>
	<polyline class="st3" points="41.1,158.7 41.3,159.1 41.3,159.1 41.3,159.1 	"/>
	<line class="st3" x1="41.3" y1="159.1" x2="41.3" y2="159.1"/>
	<polyline class="st3" points="41.3,157.7 41.3,157.7 41.3,157.7 	"/>
	<path class="st3" d="M41.3,157.7c1-0.6,2-1.2,2.8-2"/>
	<path class="st3" d="M41,158.2C41,158.2,41,158.1,41,158.2"/>
	<polyline class="st3" points="41.8,160.1 41.8,160.1 41.3,159.1 	"/>
	<path class="st3" d="M41,158.2c0,0.1,0,0.1,0,0.2"/>
	<path class="st3" d="M44.2,155.6c0.1-0.1,0.2-0.1,0.4-0.1"/>
	<path class="st3" d="M44.6,155.5c0.2,0,0.3,0.1,0.5,0.2"/>
	<path class="st3" d="M28.4,158.1C28.4,158.1,28.4,158.2,28.4,158.1"/>
	<line class="st3" x1="28.1" y1="159.1" x2="28.1" y2="159.1"/>
	<path class="st3" d="M24.3,155.6c0.1-0.1,0.3-0.2,0.5-0.2"/>
	<path class="st3" d="M28.4,158.4c0-0.1,0-0.2,0-0.2"/>
	<path class="st3" d="M28.3,158.7c0-0.1,0.1-0.2,0.1-0.3"/>
	<line class="st3" x1="28.1" y1="159.1" x2="28.1" y2="159.1"/>
	<path class="st3" d="M24.3,155.6l-0.4,0.4c0,0,0,0,0,0c-0.3,0.3-0.6,0.5-0.8,0.8c1.3,1.3,2.8,2.4,4.5,3.3"/>
	<path class="st3" d="M24.8,155.5c0.2,0,0.3,0.1,0.5,0.2c0.8,0.8,1.8,1.5,2.8,2c0.2,0.1,0.3,0.3,0.3,0.4"/>
	<polyline class="st3" points="28.1,159.1 28.1,159.1 28.1,159.1 	"/>
	<polyline class="st3" points="28.3,158.7 28.3,158.7 28.1,159.1 	"/>
	<polyline class="st3" points="24.3,155.6 24.3,155.6 24.3,155.6 	"/>
	<line class="st3" x1="28.1" y1="159.1" x2="28.1" y2="159.1"/>
	<polyline class="st3" points="27.6,160.1 27.6,160.1 28.1,159.1 	"/>
	<line class="st3" x1="24.8" y1="155.5" x2="24.8" y2="155.5"/>
	<path class="st3" d="M28.6,126.1c1.9-0.6,4-0.9,6.1-0.9h0"/>
	<path class="st3" d="M28.6,126.1c-1.3,0.4-2.5,0.9-3.7,1.5"/>
	<path class="st3" d="M34.7,125.2c1.6,0,3.1,0.2,4.6,0.5"/>
	<path class="st3" d="M20.3,160c-2.3-2.3-4.1-5.2-5.1-8.4"/>
	<path class="st3" d="M28.6,165.1c-3.2-1-6-2.7-8.4-5.1"/>
	<path class="st3" d="M15.2,139.5c1.4-4.5,4.3-8.3,8.1-10.8"/>
	<path class="st3" d="M41.9,126.6c-0.9-0.3-1.7-0.6-2.6-0.8"/>
	<path class="st3" d="M41.9,126.6c7.7,2.9,13.1,10.3,13.1,19c0,11.3-9.1,20.4-20.4,20.4c-2.1,0-4.1-0.3-6.1-0.9"/>
	<path class="st3" d="M15.2,139.5c-0.6,1.9-0.9,4-0.9,6.1s0.3,4.1,0.9,6.1"/>
	<path class="st3" d="M23.3,128.7c0.5-0.4,1.1-0.7,1.7-1"/>
	<line class="st3" x1="31.8" y1="134.1" x2="31.8" y2="130.9"/>
	<line class="st3" x1="31.8" y1="130.9" x2="31.8" y2="130.9"/>
	<line class="st3" x1="37.5" y1="134.1" x2="37.5" y2="130.9"/>
	<line class="st3" x1="37.5" y1="129.1" x2="37.5" y2="129.1"/>
	<path class="st3" d="M37.5,129.1l0.5-2.6c0-0.1,0-0.3-0.1-0.4c-0.1-0.1-0.2-0.2-0.4-0.2c-0.9-0.1-1.9-0.2-2.9-0.2
		c-1,0-1.9,0.1-2.9,0.2c-0.2,0-0.3,0.1-0.4,0.2c-0.1,0.1-0.1,0.3-0.1,0.4l0.5,2.6v0"/>
	<path class="st3" d="M21.5,138.6L21.5,138.6c0.8-1.5,1.9-2.9,3.1-4"/>
	<path class="st3" d="M49.6,143.7c0,0.3,0.1,0.6,0.1,0.9"/>
	<path class="st3" d="M20.3,149.9c0.5,1.7,1.3,3.3,2.4,4.7"/>
	<path class="st3" d="M27.6,160.1l-0.1,0.2c-0.2,0.4,0,0.8,0.4,1c2.1,0.9,4.5,1.4,6.8,1.4c2.3,0,4.7-0.5,6.8-1.4
		c0.4-0.2,0.5-0.6,0.4-1l-0.1-0.2"/>
	<path class="st3" d="M32.7,160.4c-1.6-0.2-3.1-0.7-4.6-1.4"/>
	<path class="st3" d="M47.9,138.6l1.2-0.6c0.4-0.2,0.5-0.7,0.3-1c-1.2-2-2.8-3.8-4.7-5.1c-1.9-1.4-4.1-2.3-6.3-2.9
		c-0.4-0.1-0.8,0.2-0.9,0.6"/>
	<path class="st3" d="M23.9,156c-0.4-0.4-0.8-0.9-1.2-1.4"/>
	<line class="st3" x1="50.6" y1="143.3" x2="49.5" y2="143.5"/>
	<path class="st3" d="M28.7,131.8c1-0.4,2-0.8,3.1-1"/>
	<line class="st3" x1="31.8" y1="130.9" x2="31.8" y2="130.9"/>
	<path class="st3" d="M31.8,129.5c-0.1-0.4-0.5-0.6-0.9-0.6c-2.3,0.5-4.4,1.5-6.3,2.9c-1.9,1.4-3.5,3.1-4.7,5.1
		c-0.2,0.4-0.1,0.8,0.3,1l1.2,0.6"/>
	<path class="st3" d="M27.3,132.6c-0.5,0.3-0.9,0.6-1.4,0.9"/>
	<path class="st3" d="M40.7,131.8c-1-0.4-2-0.8-3.1-1"/>
	<path class="st3" d="M24.6,134.5c0.4-0.4,0.9-0.7,1.3-1.1c0,0,0,0,0,0"/>
	<path class="st3" d="M27.3,132.6c0.4-0.2,0.9-0.5,1.3-0.7"/>
	<path class="st3" d="M18.7,143.3l-0.2,0c-0.4-0.1-0.8,0.2-0.8,0.6c-0.1,0.5-0.1,1.1-0.1,1.6c0,4.2,1.5,8.2,4.3,11.3
		c0.3,0.3,0.8,0.3,1.1,0l1-0.9l0,0"/>
	<path class="st3" d="M28.7,131.8c0,0-0.1,0-0.1,0.1"/>
	<line class="st3" x1="18.7" y1="143.3" x2="19.9" y2="143.5"/>
	<path class="st3" d="M37.3,160.3c0.3,0,0.5-0.1,0.8-0.1"/>
	<path class="st3" d="M34.7,160.6c-0.7,0-1.3-0.1-2-0.1"/>
	<path class="st3" d="M34.7,160.6c0.6,0,1.1,0,1.7-0.1"/>
	<line class="st3" x1="27.6" y1="160.1" x2="28.1" y2="159.1"/>
	<path class="st3" d="M40.8,131.9c-0.1,0-0.1-0.1-0.2-0.1"/>
	<line class="st3" x1="19.9" y1="143.5" x2="19.9" y2="143.5"/>
	<line class="st3" x1="28.1" y1="159.1" x2="28.1" y2="159.1"/>
	<line class="st3" x1="41.8" y1="160.1" x2="41.3" y2="159.1"/>
	<path class="st3" d="M44.8,134.5c-0.4-0.4-0.9-0.7-1.3-1.1c-0.4-0.3-0.9-0.6-1.4-0.9"/>
	<path class="st3" d="M41.2,159.1C41.2,159.1,41.3,159.1,41.2,159.1L41.2,159.1"/>
	<path class="st3" d="M49.6,143.7c0-0.1,0-0.1,0-0.2l0,0"/>
	<path class="st3" d="M37.3,160.3c-0.3,0.1-0.6,0.1-0.9,0.2"/>
	<line class="st3" x1="28.1" y1="159.1" x2="28.1" y2="159.1"/>
	<path class="st3" d="M45.5,156l1,0.9c0.3,0.3,0.8,0.3,1.1,0c2.8-3.1,4.3-7.1,4.3-11.3c0-0.5,0-1.1-0.1-1.6c0-0.4-0.4-0.7-0.8-0.6
		l-0.2,0"/>
	<path class="st3" d="M40.8,131.9c0.4,0.2,0.9,0.4,1.3,0.6"/>
	<path class="st3" d="M47.3,153.7c1.6-2.4,2.4-5.2,2.4-8.2c0-0.3,0-0.7,0-1"/>
	<line class="st3" x1="28.1" y1="159.1" x2="28.1" y2="159.1"/>
	<path class="st3" d="M19.7,145.6c0-0.7,0-1.4,0.1-2.1l0,0"/>
	<path class="st3" d="M41.2,159.1c-1,0.5-2.1,0.9-3.2,1.1"/>
	<path class="st3" d="M47.3,153.7c-0.5,0.8-1.1,1.6-1.8,2.3"/>
	<path class="st3" d="M47.9,138.6c-0.8-1.5-1.9-2.9-3.1-4"/>
	<path class="st3" d="M19.7,145.6c0,1.5,0.2,2.9,0.6,4.3"/>
	<line class="st3" x1="31.8" y1="130.9" x2="31.8" y2="130"/>
	<line class="st3" x1="37.5" y1="130" x2="37.5" y2="130.9"/>
	<line class="st3" x1="37.5" y1="130.9" x2="37.5" y2="130.9"/>
	<line class="st3" x1="31.8" y1="129.1" x2="31.8" y2="129.5"/>
	<path class="st3" d="M37.5,129.1"/>
	<line class="st3" x1="37.5" y1="129.5" x2="37.5" y2="129.1"/>
	<path class="st3" d="M31.8,130"/>
	<path class="st3" d="M37.5,130"/>
	<line class="st3" x1="31.8" y1="129.5" x2="31.8" y2="130"/>
	<line class="st3" x1="37.5" y1="129.5" x2="37.5" y2="130"/>
	<path class="st3" d="M31.8,134.1c-5.2,1.3-9,5.9-9,11.5c0,6.6,5.3,11.9,11.9,11.9c6.6,0,11.9-5.3,11.9-11.9c0-5.6-3.9-10.3-9-11.5"
		/>
</g>
<g id="g5959-5_00000152242704332030467230000001987284496849190332_" transform="translate(301.93513,1189.951)">
	<path id="path5961-3_00000170269487744464561830000000642064988458384816_" class="st1" d="M-259.7-969.7c0,4.1-3.3,7.4-7.4,7.4
		s-7.4-3.3-7.4-7.4c0-4.1,3.3-7.4,7.4-7.4C-263-977-259.7-973.7-259.7-969.7"/>
</g>
<g id="g5959-5_00000012446102872082415530000001923031493858690751_" transform="translate(301.93513,1189.951)">
	<path id="path5961-3_00000115476971999870591330000016998893229457581716_" class="st1" d="M-267-975.5c3.2,0,5.8,2.6,5.8,5.8
		s-2.6,5.8-5.8,5.8c-3.2,0-5.8-2.6-5.8-5.8C-272.8-972.9-270.2-975.5-267-975.5"/>
</g>
<g id="g5959-5_00000004514468672780123070000010221649107082828699_" transform="translate(301.93513,1189.951)">
	<path id="path5961-3_00000072980910566344676670000004036743584652601226_" class="st1" d="M-267.1-997.3c2.6,0,4.6,2.1,4.6,4.6
		s-2.1,4.6-4.6,4.6c-2.6,0-4.6-2.1-4.6-4.6C-271.8-995.2-269.7-997.3-267.1-997.3"/>
</g>
<g>
	<polygon class="st3" points="10.4,273.6 9.8,274.7 10.6,275.7 10.2,277 11.3,277.8 11.2,279.1 12.4,279.7 12.6,281 13.9,281.3 
		14.3,282.6 15.6,282.6 16.3,283.8 17.6,283.5 18.6,284.5 19.8,284 20.9,284.7 22,284 23.2,284.5 24.1,283.5 25.4,283.8 26.1,282.6 
		27.5,282.6 27.9,281.3 29.2,281 29.4,279.7 30.6,279.1 30.5,277.8 31.5,277 31.1,275.7 32,274.7 31.4,273.6 32,272.4 31.1,271.4 
		31.5,270.1 30.5,269.3 30.6,268 29.4,267.4 29.2,266.1 27.9,265.8 27.5,264.5 26.1,264.5 25.4,263.3 24.1,263.6 23.2,262.6 
		22,263.1 20.9,262.4 19.8,263.1 18.6,262.6 17.6,263.6 16.3,263.3 15.6,264.5 14.3,264.5 13.9,265.8 12.6,266.1 12.4,267.4 
		11.2,268 11.3,269.3 10.2,270.1 10.6,271.4 9.8,272.4 	"/>
	<circle class="st3" cx="20.9" cy="273.5" r="8.9"/>
	<circle class="st3" cx="20.9" cy="273.5" r="6"/>
</g>
<g>
	<polygon class="st3" points="46.6,273.6 45.9,274.7 46.8,275.7 46.4,277 47.5,277.8 47.4,279.1 48.6,279.7 48.7,281 50,281.3 
		50.5,282.6 51.8,282.6 52.5,283.8 53.8,283.5 54.7,284.5 56,284 57.1,284.7 58.2,284 59.4,284.5 60.3,283.5 61.6,283.8 62.3,282.6 
		63.6,282.6 64.1,281.3 65.4,281 65.5,279.7 66.8,279.1 66.6,277.8 67.7,277 67.3,275.7 68.2,274.7 67.5,273.6 68.2,272.4 
		67.3,271.4 67.7,270.1 66.6,269.3 66.8,268 65.5,267.4 65.4,266.1 64.1,265.8 63.6,264.5 62.3,264.5 61.6,263.3 60.3,263.6 
		59.4,262.6 58.2,263.1 57.1,262.4 56,263.1 54.7,262.6 53.8,263.6 52.5,263.3 51.8,264.5 50.5,264.5 50,265.8 48.7,266.1 
		48.6,267.4 47.4,268 47.5,269.3 46.4,270.1 46.8,271.4 45.9,272.4 	"/>
	<circle class="st3" cx="57" cy="273.5" r="8.9"/>
	<circle class="st3" cx="57" cy="273.5" r="6"/>
</g>
<g>
	<polygon class="st3" points="82.7,273.6 82.1,274.7 83,275.7 82.6,277 83.6,277.8 83.5,279.1 84.7,279.7 84.9,281 86.2,281.3 
		86.6,282.6 88,282.6 88.7,283.8 90,283.5 90.9,284.5 92.1,284 93.2,284.7 94.3,284 95.6,284.5 96.5,283.5 97.8,283.8 98.5,282.6 
		99.8,282.6 100.2,281.3 101.5,281 101.7,279.7 102.9,279.1 102.8,277.8 103.9,277 103.5,275.7 104.4,274.7 103.7,273.6 
		104.4,272.4 103.5,271.4 103.9,270.1 102.8,269.3 102.9,268 101.7,267.4 101.5,266.1 100.2,265.8 99.8,264.5 98.5,264.5 
		97.8,263.3 96.5,263.6 95.6,262.6 94.3,263.1 93.2,262.4 92.1,263.1 90.9,262.6 90,263.6 88.7,263.3 88,264.5 86.6,264.5 
		86.2,265.8 84.9,266.1 84.7,267.4 83.5,268 83.6,269.3 82.6,270.1 83,271.4 82.1,272.4 	"/>
	<circle class="st3" cx="93.2" cy="273.5" r="8.9"/>
	<circle class="st3" cx="93.2" cy="273.5" r="6"/>
</g>
<g>
	<polygon class="st3" points="10.4,313.5 9.8,314.7 10.6,315.7 10.2,317 11.3,317.8 11.2,319.1 12.4,319.7 12.6,321 13.9,321.3 
		14.3,322.6 15.6,322.6 16.3,323.8 17.6,323.5 18.6,324.5 19.8,324 20.9,324.7 22,324 23.2,324.5 24.1,323.5 25.4,323.8 26.1,322.6 
		27.5,322.6 27.9,321.3 29.2,321 29.4,319.7 30.6,319.1 30.5,317.8 31.5,317 31.1,315.7 32,314.7 31.4,313.5 32,312.4 31.1,311.4 
		31.5,310.1 30.5,309.3 30.6,308 29.4,307.4 29.2,306.1 27.9,305.8 27.5,304.5 26.1,304.5 25.4,303.3 24.1,303.6 23.2,302.6 
		22,303.1 20.9,302.4 19.8,303.1 18.6,302.6 17.6,303.6 16.3,303.3 15.6,304.5 14.3,304.5 13.9,305.8 12.6,306.1 12.4,307.4 
		11.2,308 11.3,309.3 10.2,310.1 10.6,311.4 9.8,312.4 	"/>
	<circle class="st3" cx="20.9" cy="313.5" r="8.9"/>
	<circle class="st3" cx="20.9" cy="313.5" r="6"/>
</g>
<g>
	<polygon class="st3" points="46.6,313.5 45.9,314.7 46.8,315.7 46.4,317 47.5,317.8 47.4,319.1 48.6,319.7 48.7,321 50,321.3 
		50.5,322.6 51.8,322.6 52.5,323.8 53.8,323.5 54.7,324.5 56,324 57.1,324.7 58.2,324 59.4,324.5 60.3,323.5 61.6,323.8 62.3,322.6 
		63.6,322.6 64.1,321.3 65.4,321 65.5,319.7 66.8,319.1 66.6,317.8 67.7,317 67.3,315.7 68.2,314.7 67.5,313.5 68.2,312.4 
		67.3,311.4 67.7,310.1 66.6,309.3 66.8,308 65.5,307.4 65.4,306.1 64.1,305.8 63.6,304.5 62.3,304.5 61.6,303.3 60.3,303.6 
		59.4,302.6 58.2,303.1 57.1,302.4 56,303.1 54.7,302.6 53.8,303.6 52.5,303.3 51.8,304.5 50.5,304.5 50,305.8 48.7,306.1 
		48.6,307.4 47.4,308 47.5,309.3 46.4,310.1 46.8,311.4 45.9,312.4 	"/>
	<circle class="st3" cx="57" cy="313.5" r="8.9"/>
	<circle class="st3" cx="57" cy="313.5" r="6"/>
</g>
<g>
	<polygon class="st3" points="82.7,313.5 82.1,314.7 83,315.7 82.6,317 83.6,317.8 83.5,319.1 84.7,319.7 84.9,321 86.2,321.3 
		86.6,322.6 88,322.6 88.7,323.8 90,323.5 90.9,324.5 92.1,324 93.2,324.7 94.3,324 95.6,324.5 96.5,323.5 97.8,323.8 98.5,322.6 
		99.8,322.6 100.2,321.3 101.5,321 101.7,319.7 102.9,319.1 102.8,317.8 103.9,317 103.5,315.7 104.4,314.7 103.7,313.5 
		104.4,312.4 103.5,311.4 103.9,310.1 102.8,309.3 102.9,308 101.7,307.4 101.5,306.1 100.2,305.8 99.8,304.5 98.5,304.5 
		97.8,303.3 96.5,303.6 95.6,302.6 94.3,303.1 93.2,302.4 92.1,303.1 90.9,302.6 90,303.6 88.7,303.3 88,304.5 86.6,304.5 
		86.2,305.8 84.9,306.1 84.7,307.4 83.5,308 83.6,309.3 82.6,310.1 83,311.4 82.1,312.4 	"/>
	<circle class="st3" cx="93.2" cy="313.5" r="8.9"/>
	<circle class="st3" cx="93.2" cy="313.5" r="6"/>
</g>
</svg>
