<?xml version="1.0" encoding="utf-8"?>
<!-- Generator: Adobe Illustrator 27.6.0, SVG Export Plug-In . SVG Version: 6.00 Build 0)  -->
<svg version="1.1" xmlns="http://www.w3.org/2000/svg" xmlns:xlink="http://www.w3.org/1999/xlink" x="0px" y="0px" width="771px"
	 height="409px" viewBox="0 0 771 409" style="enable-background:new 0 0 771 409;" xml:space="preserve">
<g id="Layer_1">
</g>
<g id="Silkscreen">
	<g>
		<path style="fill:#F2E626;" d="M281.84412,69.66347c-5.88748,0-11.55881,0.6187-16.97433,1.76289
			c1.92746,4.05123,3.03793,8.56052,3.03793,13.33556c0,5.52855-1.45947,10.71603-3.99173,15.22335
			c5.40363-2.16145,11.43784-3.3334,17.92813-3.3334c26.02866,0,44.74997,18.79472,44.74997,45.11485
			c0,26.32213-18.72131,45.11287-44.74997,45.11287c-26.02664,0-44.74602-18.79074-44.74602-45.11287
			c0-10.43643,2.98042-19.65929,8.15601-27.02805c-2.71867,0.77732-5.57614,1.21953-8.5407,1.21953
			c-7.8903,0-15.08258-2.96852-20.58336-7.81693c-5.01299,9.89707-7.81099,21.26552-7.81099,33.62544
			c0,41.32736,31.46996,72.10524,73.52505,72.10524v0.00198c41.98175,0,73.52304-30.77788,73.52304-72.10524
			C355.36716,100.36798,323.82587,69.66347,281.84412,69.66347"/>
		<path style="fill:#F2E626;" d="M249.53835,76.38717c-2.74049-4.18011-7.46198-6.95432-12.82396-6.95432
			c-8.45346,0-15.33044,6.87699-15.33044,15.33045c0,3.78947,1.38809,7.25374,3.67447,9.93077
			c2.81386,3.29967,6.992,5.39966,11.65598,5.39966c8.45148,0,15.33044-6.87897,15.33044-15.33043
			C252.04483,81.67182,251.11679,78.79848,249.53835,76.38717"/>
		<path style="fill:#F2E626;" d="M193.56885,141.77525c0,41.21629-29.83398,72.10324-71.48853,72.10324
			c-19.2964,0-36.18151-7.06934-48.54342-18.95732l-3.63878,15.60806h-21.3825V23.72232h28.26742v61.91864
			c12.003-10.09141,27.63882-15.97292,45.29728-15.97292C163.73486,69.66804,193.56885,100.37254,193.56885,141.77525
			 M164.71843,141.77127c0-25.92155-18.93948-45.11682-44.86103-45.11682s-45.04346,19.37771-45.04346,45.11682
			c0,25.48531,19.12191,45.04347,45.04346,45.04347S164.71843,167.61748,164.71843,141.77127"/>
		<path style="fill:#F2E626;" d="M494.43579,127.65025v82.87482h-28.26547v-77.04881
			c0-24.90428-10.64862-38.24381-31.54727-38.24381c-21.38052,0-36.93704,17.30351-36.93704,41.66645v73.62617h-28.26544V23.72211
			H397.686v64.91692c10.5495-11.74123,26.27652-18.75505,44.66077-18.75505
			C474.43143,69.88397,494.43579,92.22228,494.43579,127.65025"/>
		<path style="fill:#F2E626;" d="M673.91913,69.88438c28.99121,0,48.56525,22.04681,48.56525,53.19154v87.44956h-28.26746v-80.50317
			c0-22.14-9.62738-34.78945-26.74847-34.78945c-18.2196,0-32.24323,16.68085-32.24323,40.10186v75.19077h-27.6131v-80.50317
			c0-22.14-9.55603-34.78945-26.78217-34.78945c-18.29303,0-32.39203,16.68085-32.39203,40.10186v75.19077h-28.2674V73.01353
			h20.03406l4.85834,17.76554c10.32141-12.89732,26.01477-20.8947,42.72528-20.8947c18.64008,0,33.41132,9.15941,41.25201,24.07738
			c10.00812-14.78908,26.72662-24.07738,44.87695-24.07738H673.91913z"/>
		<rect x="48.51641" y="23.72093" style="fill:none;" width="673.96637" height="190.15816"/>
		<rect x="48.51641" y="23.72191" style="fill:none;" width="673.96637" height="190.15718"/>
	</g>
	<g>
		<path style="fill:#FFFFFF;" d="M297.17441,347.28699v25.89059h-8.83051v-24.07074c0-7.78018-3.3259-11.94684-9.8551-11.94684
			c-6.6796,0-11.53931,5.40451-11.53931,13.01654v23.00104h-8.83047v-58.35861h8.83047v20.28021
			c3.29605-3.66797,8.2092-5.8587,13.95212-5.8587C290.9249,329.24048,297.17441,336.21863,297.17441,347.28699"/>
		<path style="fill:#FFFFFF;" d="M353.24561,329.24072c9.05676,0,15.17163,6.88702,15.17163,16.61694v27.31967h-8.83047v-25.1499
			c0-6.9158-3.00793-10.86771-8.35641-10.86771c-5.69211,0-10.07303,5.21121-10.07303,12.5278v23.48981h-8.62619v-25.1499
			c0-6.9158-2.98541-10.86771-8.36688-10.86771c-5.71466,0-10.11966,5.21121-10.11966,12.5278v23.48981h-8.83051v-42.95911h6.25842
			l1.5181,5.54965c3.22427-4.02838,8.12695-6.52716,13.3476-6.52716c5.82309,0,10.43713,2.86179,12.88666,7.52087
			c3.12683-4.61978,8.3501-7.52087,14.01968-7.52087H353.24561z"/>
		<path style="fill:#FFFFFF;" d="M400.2186,337.96802h-12.15533v35.20984h-8.82999v-35.20984h-8.03265v-7.3396h8.05573v-3.63812
			c0-8.77075,4.35422-13.61426,13.71744-13.61426h7.16519v7.03159h-5.47003c-4.789,0-6.8671,1.99796-6.8671,6.78699v3.43274
			h12.41675V337.96802z"/>
		<path style="fill:#FFFFFF;" d="M399.34714,351.69662c0-12.99036,9.83102-22.52539,22.96964-22.52539
			c13.11502,0,22.9686,9.59216,22.9686,22.52591c0,12.91125-9.85358,22.52542-22.9686,22.52542
			C409.17816,374.22256,399.34714,364.60736,399.34714,351.69662 M436.29666,351.69662
			c0-8.22229-5.84875-14.09409-13.97989-14.09409c-8.13116,0-13.97937,5.8718-13.97937,14.09409
			c0,8.22284,5.84821,14.09412,13.97937,14.09412C430.44791,365.79074,436.29666,359.91946,436.29666,351.69662"/>
		<path style="fill:#FFFFFF;" d="M475.15222,329.97937v8.34122h-4.66174c-7.30399,0-10.94836,4.1651-10.94836,11.94788v22.90887
			h-8.83051v-42.95911h5.9729l1.49402,5.86343c3.07391-4.07449,7.28882-6.10229,13.15485-6.10229H475.15222z"/>
		<path style="fill:#FFFFFF;" d="M496.24094,374.22397c-12.79706,0-22.5144-9.74039-22.5144-22.5715
			c0-12.83163,9.69427-22.48087,22.53741-22.48087c10.61682,0,18.91403,6.50302,21.29965,16.35867h-8.75089
			c-2.25986-4.94092-6.97293-7.92789-12.57178-7.92789c-7.73355,0-13.52472,6.1091-13.52472,14.07104
			c0,7.96246,5.87079,14.11768,13.52472,14.11768c5.62244,0,10.17572-3.03256,12.51572-8.2569h8.91016
			c-2.3631,10.03745-10.81958,16.68872-21.42587,16.68872V374.22397z"/>
		<path style="fill:#FFFFFF;" d="M563.20013,351.79883c0,0.96597-0.07965,1.93301-0.18176,2.89899h-34.8678
			c1.10327,6.96347,6.11542,11.2428,13.14856,11.2428c5.13269,0,9.28888-2.37253,11.5603-6.29037h9.29663
			c-3.41962,9.0704-11.2627,14.57239-20.8559,14.57239c-12.55817,0-22.07172-9.69379-22.07172-22.52542
			c0-12.85416,9.48999-22.52594,22.07172-22.52594c13.14911,0,21.90155,10.1265,21.90155,22.62756H563.20013z M541.29913,337.14526
			c-6.6424,0-11.48114,4.0069-12.92798,10.37897h25.97595c-1.58514-6.52554-6.50305-10.3779-13.04797-10.3779V337.14526z"/>
		<path style="fill:#FFFFFF;" d="M230.76793,328.89944c-1.83923,0-3.61089,0.19382-5.30238,0.55057
			c0.6019,1.26562,0.94868,2.67477,0.94868,4.16617c0,1.72763-0.45627,3.34738-1.24727,4.75598
			c1.68835-0.67523,3.57315-1.04138,5.60097-1.04138c8.13167,0,13.98042,5.87125,13.98042,14.09409
			c0,8.22281-5.84875,14.09357-13.98042,14.09357c-8.13063,0-13.97885-5.87076-13.97885-14.09357
			c0-3.26096,0.93088-6.14157,2.54799-8.44336c-0.84915,0.24252-1.74231,0.38031-2.66795,0.38031
			c-2.46523,0-4.71252-0.92722-6.43022-2.44165c-1.5663,3.09122-2.4406,6.64343-2.4406,10.5047
			c0,12.91074,9.83156,22.52539,22.96964,22.52539v0.00107c13.11502,0,22.9691-9.6152,22.9691-22.52594
			C253.73703,338.49213,243.88295,328.89944,230.76793,328.89944"/>
		<path style="fill:#FFFFFF;" d="M220.67545,330.99991c-0.85597-1.30594-2.33112-2.17239-4.00638-2.17239
			c-2.64072,0-4.78954,2.14832-4.78954,4.78903c0,1.18387,0.43427,2.26614,1.14827,3.10272
			c0.87901,1.03043,2.18391,1.6868,3.64127,1.6868c2.6407,0,4.789-2.14883,4.789-4.78952
			C221.45807,332.65109,221.1689,331.7532,220.67545,330.99991"/>
		<rect x="207.79836" y="313.37604" style="fill:none;" width="355.40326" height="60.84794"/>
		<rect x="207.79836" y="313.37604" style="fill:none;" width="355.40326" height="60.84794"/>
	</g>
	<g>
	</g>
	<g>
	</g>
	<g>
	</g>
	<g>
	</g>
	<g>
	</g>
	<g>
	</g>
	<g>
	</g>
	<g>
	</g>
	<g>
	</g>
	<g>
	</g>
	<g>
	</g>
	<g>
	</g>
	<g>
	</g>
	<g>
	</g>
	<g>
	</g>
</g>
</svg>
